<svg xmlns="http://www.w3.org/2000/svg" viewBox="0 0 1080 1080"><rect width="1080" height="1080" fill="#fffdf7"/><rect x="60" y="80" width="320" height="320" rx="16" fill="#dcedf3" stroke="#6b584a" stroke-width="7"/><line x1="220" y1="80" x2="220" y2="400" stroke="#6b584a" stroke-width="7"/><line x1="60" y1="240" x2="380" y2="240" stroke="#6b584a" stroke-width="7"/><circle cx="140" cy="160" r="42" fill="#f6cd7f" stroke="#6b584a" stroke-width="5"/><rect x="0" y="830" width="1080" height="250" fill="#f2e7d4"/><g transform="translate(880,690)"><line x1="0" y1="60" x2="0" y2="128" stroke="#6b584a" stroke-width="9"/><ellipse cx="0" cy="138" rx="62" ry="16" fill="#e3ddd2" stroke="#6b584a" stroke-width="5"/><circle cx="0" cy="0" r="72" fill="#eef5f5" stroke="#6b584a" stroke-width="6"/><circle cx="0" cy="0" r="13" fill="#a9cdd0" stroke="#6b584a" stroke-width="4"/><path d="M -8 -13 Q -55 -44 -28 -62 Q -6 -38 8 -13 Z" fill="#c8e2e4" stroke="#6b584a" stroke-width="4"/><path d="M 13 -4 Q 62 -20 62 12 Q 28 15 13 4 Z" fill="#c8e2e4" stroke="#6b584a" stroke-width="4"/><path d="M -4 13 Q -13 62 -45 43 Q -32 15 -8 9 Z" fill="#c8e2e4" stroke="#6b584a" stroke-width="4"/></g><path d="M 792 640 q -28 9 0 20 M 782 602 q -38 11 0 24" fill="none" stroke="#a9cdd0" stroke-width="7" stroke-linecap="round"/><g transform="translate(470,640)"><path d="M -125.0 290 L -125.0 63.8 Q -125.0 0 -75.0 0 L 75.0 0 Q 125.0 0 125.0 63.8 L 125.0 290 Z" fill="#e7edf3" stroke="#6b584a" stroke-width="5" stroke-linejoin="round"/><path d="M 0 0 l -10 12 l 10 46 l 10 -46 Z" fill="#6c88a8" stroke="#6b584a" stroke-width="4"/><path d="M -50.0 0 L 0 12 L 50.0 0" fill="none" stroke="#6b584a" stroke-width="4"/><path d="M -125 60 Q -190 40 -205 -25" fill="none" stroke="#6b584a" stroke-width="30" stroke-linecap="round"/><path d="M -125 60 Q -190 40 -205 -25" fill="none" stroke="#e7edf3" stroke-width="19" stroke-linecap="round"/><path d="M 125 60 Q 190 40 205 -25" fill="none" stroke="#6b584a" stroke-width="30" stroke-linecap="round"/><path d="M 125 60 Q 190 40 205 -25" fill="none" stroke="#e7edf3" stroke-width="19" stroke-linecap="round"/></g><g transform="translate(470,615) rotate(-4)"><rect x="-145" y="-95" width="290" height="190" rx="10" fill="#fff" stroke="#6b584a" stroke-width="6"/><line x1="-105" y1="-52" x2="105" y2="-52" stroke="#c9c0b2" stroke-width="8"/><line x1="-105" y1="-14" x2="105" y2="-14" stroke="#c9c0b2" stroke-width="8"/><line x1="-105" y1="24" x2="35" y2="24" stroke="#c9c0b2" stroke-width="8"/><line x1="-105" y1="58" x2="105" y2="58" stroke="#dd8f76" stroke-width="11"/></g><g transform="translate(470,350)"><path d="M -80.6 -101.4 L -59.800000000000004 -153.4 L -28.6 -119.60000000000001 Z" fill="#a97f52" stroke="#6b584a" stroke-width="5" stroke-linejoin="round"/><path d="M -65.0 -114.4 L -55.9 -137.8 L -41.6 -120.9 Z" fill="#7e5c39"/><path d="M 80.6 -101.4 L 59.800000000000004 -153.4 L 28.6 -119.60000000000001 Z" fill="#a97f52" stroke="#6b584a" stroke-width="5" stroke-linejoin="round"/><path d="M 65.0 -114.4 L 55.9 -137.8 L 41.6 -120.9 Z" fill="#7e5c39"/><circle cx="0" cy="0" r="130" fill="#fdeee0" stroke="#6b584a" stroke-width="5"/><path d="M -128.7 6.5 A 128.7 128.7 0 0 1 128.7 6.5 L 128.7 13.0 Q 93.6 2.6 78.0 -23.4 Q 13.0 -41.6 -36.400000000000006 -28.6 Q -85.8 -15.6 -128.7 15.6 Z" fill="#4a4038" stroke="#6b584a" stroke-width="5" stroke-linejoin="round"/><path d="M -36.400000000000006 -31.2 L -15.6 -54.6" stroke="#6b584a" stroke-width="3" fill="none"/><circle cx="-46.8" cy="18.200000000000003" r="35.1" fill="#fff" fill-opacity="0.35" stroke="#6b584a" stroke-width="4"/><circle cx="46.8" cy="18.200000000000003" r="35.1" fill="#fff" fill-opacity="0.35" stroke="#6b584a" stroke-width="4"/><line x1="-11.7" y1="13.0" x2="11.7" y2="13.0" stroke="#6b584a" stroke-width="4"/><circle cx="-44.2" cy="15.6" r="13.0" fill="#6b584a"/><circle cx="44.2" cy="15.6" r="13.0" fill="#6b584a"/><ellipse cx="0" cy="67.60000000000001" rx="22.1" ry="28.6" fill="#a4756a" stroke="#6b584a" stroke-width="4"/><circle cx="-78.0" cy="44.2" r="15.6" fill="#f5c0ae" opacity="0.75"/><circle cx="78.0" cy="44.2" r="15.6" fill="#f5c0ae" opacity="0.75"/></g><path transform="translate(325,295) scale(1.1)" d="M 0 -15 Q 11 2 0 13 Q -11 2 0 -15 Z" fill="#bfe0ee" stroke="#6b584a" stroke-width="3.5"/><path transform="translate(618,320) scale(0.95)" d="M 0 -15 Q 11 2 0 13 Q -11 2 0 -15 Z" fill="#bfe0ee" stroke="#6b584a" stroke-width="3.5"/><path transform="translate(592,215) scale(0.8)" d="M 0 -15 Q 11 2 0 13 Q -11 2 0 -15 Z" fill="#bfe0ee" stroke="#6b584a" stroke-width="3.5"/><g stroke="#6b584a" stroke-width="6" stroke-linecap="round"><line x1="292" y1="170" x2="320" y2="205"/><line x1="258" y1="248" x2="296" y2="262"/><line x1="650" y1="170" x2="622" y2="205"/><line x1="684" y1="248" x2="646" y2="262"/></g><g transform="translate(300,950) scale(1.02,1.02)"><ellipse cx="0" cy="0" rx="92" ry="36" fill="#cda679" stroke="#6b584a" stroke-width="5"/><circle cx="-82" cy="-16" r="33" fill="#cda679" stroke="#6b584a" stroke-width="5"/><path d="M -104 -60 L -98 -34 L -82 -45 Z" fill="#cda679" stroke="#6b584a" stroke-width="5" stroke-linejoin="round"/><path d="M -76 -64 L -64 -38 L -52 -50 Z" fill="#cda679" stroke="#6b584a" stroke-width="5" stroke-linejoin="round"/><path d="M 88 6 Q 126 -2 118 -30" fill="none" stroke="#6b584a" stroke-width="8" stroke-linecap="round"/><path d="M -28 -32 q 6 13 0 28" fill="none" stroke="#8a6a44" stroke-width="6" stroke-linecap="round"/><path d="M 6 -32 q 6 13 0 28" fill="none" stroke="#8a6a44" stroke-width="6" stroke-linecap="round"/><path d="M 40 -32 q 6 13 0 28" fill="none" stroke="#8a6a44" stroke-width="6" stroke-linecap="round"/><g transform="translate(-82,-16)"><path d="M -16 0 L -5 0" stroke="#6b584a" stroke-width="4.5" stroke-linecap="round"/><path d="M 5 0 L 16 0" stroke="#6b584a" stroke-width="4.5" stroke-linecap="round"/><path d="M -4 12 Q 0 9 4 12" fill="none" stroke="#6b584a" stroke-width="4.5" stroke-linecap="round"/></g></g><g transform="translate(800,958) scale(-0.98,0.98)"><ellipse cx="0" cy="0" rx="92" ry="36" fill="#e8b06a" stroke="#6b584a" stroke-width="5"/><circle cx="-82" cy="-16" r="33" fill="#e8b06a" stroke="#6b584a" stroke-width="5"/><path d="M -104 -60 L -98 -34 L -82 -45 Z" fill="#e8b06a" stroke="#6b584a" stroke-width="5" stroke-linejoin="round"/><path d="M -76 -64 L -64 -38 L -52 -50 Z" fill="#e8b06a" stroke="#6b584a" stroke-width="5" stroke-linejoin="round"/><path d="M 88 6 Q 126 -2 118 -30" fill="none" stroke="#6b584a" stroke-width="8" stroke-linecap="round"/><path d="M -28 -32 q 6 13 0 28" fill="none" stroke="#c07a3a" stroke-width="6" stroke-linecap="round"/><path d="M 6 -32 q 6 13 0 28" fill="none" stroke="#c07a3a" stroke-width="6" stroke-linecap="round"/><path d="M 40 -32 q 6 13 0 28" fill="none" stroke="#c07a3a" stroke-width="6" stroke-linecap="round"/><g transform="translate(-82,-16)"><path d="M -16 0 L -5 0" stroke="#6b584a" stroke-width="4.5" stroke-linecap="round"/><path d="M 5 0 L 16 0" stroke="#6b584a" stroke-width="4.5" stroke-linecap="round"/><path d="M -4 12 Q 0 9 4 12" fill="none" stroke="#6b584a" stroke-width="4.5" stroke-linecap="round"/></g></g></svg>