<svg xmlns="http://www.w3.org/2000/svg" viewBox="0 0 1080 1080"><rect width="1080" height="1080" fill="#fdf8f0"/><circle cx="540" cy="560" r="430" fill="#eaf3ee"/><g transform="translate(540,700)"><path d="M -150.0 380 L -150.0 95.0 Q -150.0 0 -96.0 0 L 96.0 0 Q 150.0 0 150.0 95.0 L 150.0 380 Z" fill="#bcd9d1" stroke="#4a4640" stroke-width="6" stroke-linejoin="round"/><path d="M -150 80 Q -230 40 -240 -60" fill="none" stroke="#4a4640" stroke-width="36" stroke-linecap="round"/><path d="M -150 80 Q -228 40 -237 -57" fill="none" stroke="#bcd9d1" stroke-width="24" stroke-linecap="round"/><path d="M 150 80 Q 230 20 235 -120" fill="none" stroke="#4a4640" stroke-width="36" stroke-linecap="round"/><path d="M 150 80 Q 228 20 232 -117" fill="none" stroke="#bcd9d1" stroke-width="24" stroke-linecap="round"/></g><g transform="translate(295,600) rotate(12)"><rect x="-52" y="-88" width="104" height="176" rx="18" fill="#fff" stroke="#4a4640" stroke-width="7"/><rect x="-36" y="-64" width="72" height="112" rx="6" fill="#cfe8ef"/></g><circle cx="775" cy="575" r="26" fill="#fde8d7" stroke="#4a4640" stroke-width="6"/><g transform="translate(540,380)"><circle cx="0" cy="0" r="150" fill="#fde8d7" stroke="#4a4640" stroke-width="6"/><path d="M -162.0 67.5 Q -172.5 -135.0 0 -153.0 Q 172.5 -135.0 162.0 67.5 L 112.5 45.0 Q 135.0 -67.5 52.5 -82.5 Q 0 -93.0 -67.5 -75.0 Q -135.0 -60.0 -112.5 45.0 Z" fill="#6b5a4e" stroke="#4a4640" stroke-width="6" stroke-linejoin="round"/><path d="M -72.0 12.0 Q -54.0 -12.0 -36.0 12.0" fill="none" stroke="#4a4640" stroke-width="6" stroke-linecap="round"/><path d="M 36.0 12.0 Q 54.0 -12.0 72.0 12.0" fill="none" stroke="#4a4640" stroke-width="6" stroke-linecap="round"/><path d="M -33.0 63.0 Q 0 93.0 33.0 63.0" fill="none" stroke="#4a4640" stroke-width="6" stroke-linecap="round"/><circle cx="-93.0" cy="48.0" r="19.5" fill="#f6b8a8" opacity="0.8"/><circle cx="93.0" cy="48.0" r="19.5" fill="#f6b8a8" opacity="0.8"/></g><path transform="translate(230,260) scale(1.4)" d="M 0 -14 L 3.5 -3.5 L 14 0 L 3.5 3.5 L 0 14 L -3.5 3.5 L -14 0 L -3.5 -3.5 Z" fill="#f5c96a" stroke="#4a4640" stroke-width="2.5" stroke-linejoin="round"/><path transform="translate(850,240) scale(1.7)" d="M 0 -14 L 3.5 -3.5 L 14 0 L 3.5 3.5 L 0 14 L -3.5 3.5 L -14 0 L -3.5 -3.5 Z" fill="#f5c96a" stroke="#4a4640" stroke-width="2.5" stroke-linejoin="round"/><path transform="translate(790,430) scale(1.0)" d="M 0 -14 L 3.5 -3.5 L 14 0 L 3.5 3.5 L 0 14 L -3.5 3.5 L -14 0 L -3.5 -3.5 Z" fill="#f5c96a" stroke="#4a4640" stroke-width="2.5" stroke-linejoin="round"/><path transform="translate(180,480) scale(1.0)" d="M 0 -14 L 3.5 -3.5 L 14 0 L 3.5 3.5 L 0 14 L -3.5 3.5 L -14 0 L -3.5 -3.5 Z" fill="#f5c96a" stroke="#4a4640" stroke-width="2.5" stroke-linejoin="round"/></svg>