<svg xmlns="http://www.w3.org/2000/svg" viewBox="0 0 1080 1080"><rect width="1080" height="1080" fill="#fffdf7"/><circle cx="295" cy="540" r="325" fill="#f7edf1"/><circle cx="800" cy="560" r="305" fill="#eaf1f7"/><g transform="translate(290,660)"><path d="M -120.0 300 L -120.0 66.0 Q -120.0 0 -72.0 0 L 72.0 0 Q 120.0 0 120.0 66.0 L 120.0 300 Z" fill="#e9edf4" stroke="#6b584a" stroke-width="5" stroke-linejoin="round"/><path d="M -72.0 2 L 0 102.00000000000001 L 72.0 2 L 43.199999999999996 0 L -43.199999999999996 0 Z" fill="#3f5470" stroke="#6b584a" stroke-width="5" stroke-linejoin="round"/><path d="M -62.400000000000006 6 L 0 84.00000000000001 L 62.400000000000006 6" fill="none" stroke="#fff" stroke-width="3.5"/><path d="M 0 102.00000000000001 l -9 14 l 9 14 l 9 -14 Z" fill="#c96a72" stroke="#6b584a" stroke-width="4"/></g><g transform="translate(290,420)"><path d="M -77.5 -97.5 L -57.5 -147.5 L -27.5 -115.0 Z" fill="#a97f52" stroke="#6b584a" stroke-width="5" stroke-linejoin="round"/><path d="M -62.5 -110.0 L -53.75 -132.5 L -40.0 -116.25 Z" fill="#7e5c39"/><path d="M 77.5 -97.5 L 57.5 -147.5 L 27.5 -115.0 Z" fill="#a97f52" stroke="#6b584a" stroke-width="5" stroke-linejoin="round"/><path d="M 62.5 -110.0 L 53.75 -132.5 L 40.0 -116.25 Z" fill="#7e5c39"/><circle cx="0" cy="0" r="125" fill="#fdeee0" stroke="#6b584a" stroke-width="5"/><path d="M -127.5 212.5 L -125.0 -18.75 Q -115.0 -125.0 0 -125.0 Q 115.0 -125.0 125.0 -18.75 L 127.5 212.5 L 75.0 212.5 L 82.5 12.5 Q 90.0 -62.5 25.0 -65.0 Q -43.75 -72.5 -82.5 -25.0 L -75.0 212.5 Z" fill="#6e523c" stroke="#6b584a" stroke-width="5" stroke-linejoin="round"/><circle cx="-42.5" cy="10.0" r="15.0" fill="#6b584a"/><circle cx="-37.5" cy="2.5" r="5.625" fill="#fff"/><circle cx="42.5" cy="10.0" r="15.0" fill="#6b584a"/><circle cx="47.5" cy="2.5" r="5.625" fill="#fff"/><path d="M -20.0 52.5 Q 0 77.5 20.0 52.5 Z" fill="#a4756a" stroke="#6b584a" stroke-width="4"/><circle cx="-75.0" cy="42.5" r="15.0" fill="#f5c0ae" opacity="0.75"/><circle cx="75.0" cy="42.5" r="15.0" fill="#f5c0ae" opacity="0.75"/></g><circle cx="386" cy="330" r="14" fill="#eba7bd" stroke="#6b584a" stroke-width="4"/><circle cx="410" cy="345" r="10" fill="#eba7bd" stroke="#6b584a" stroke-width="4"/><g transform="translate(790,680)"><path d="M -115.0 280 L -115.0 61.6 Q -115.0 0 -69.0 0 L 69.0 0 Q 115.0 0 115.0 61.6 L 115.0 280 Z" fill="#a9c8de" stroke="#6b584a" stroke-width="5" stroke-linejoin="round"/><path d="M 115 60 Q 185 30 202 -35" fill="none" stroke="#6b584a" stroke-width="30" stroke-linecap="round"/><path d="M 115 60 Q 185 30 202 -35" fill="none" stroke="#a9c8de" stroke-width="19" stroke-linecap="round"/></g><g transform="translate(1005,595) rotate(-16)"><ellipse cx="0" cy="-28" rx="58" ry="68" fill="#cf6a58" stroke="#6b584a" stroke-width="6"/><rect x="-13" y="34" width="26" height="60" rx="9" fill="#e5cfa5" stroke="#6b584a" stroke-width="5"/></g><circle cx="900" cy="330" r="22" fill="#fff" stroke="#6b584a" stroke-width="5"/><g transform="translate(790,450)"><path d="M -74.4 -93.60000000000001 L -55.2 -141.6 L -26.4 -110.4 Z" fill="#a97f52" stroke="#6b584a" stroke-width="5" stroke-linejoin="round"/><path d="M -60.0 -105.6 L -51.6 -127.2 L -38.4 -111.60000000000001 Z" fill="#7e5c39"/><path d="M 74.4 -93.60000000000001 L 55.2 -141.6 L 26.4 -110.4 Z" fill="#a97f52" stroke="#6b584a" stroke-width="5" stroke-linejoin="round"/><path d="M 60.0 -105.6 L 51.6 -127.2 L 38.4 -111.60000000000001 Z" fill="#7e5c39"/><circle cx="0" cy="0" r="120" fill="#fdeee0" stroke="#6b584a" stroke-width="5"/><path d="M -118.8 0.0 A 118.8 118.8 0 0 1 118.8 0.0 L 118.8 7.199999999999999 Q 79.2 -12.0 60.0 -31.200000000000003 L 40.800000000000004 -14.399999999999999 L 14.399999999999999 -36.0 L -12.0 -16.8 L -40.800000000000004 -36.0 L -62.400000000000006 -14.399999999999999 Q -84.0 -19.2 -118.8 9.6 Z" fill="#54453a" stroke="#6b584a" stroke-width="5" stroke-linejoin="round"/><circle cx="-40.800000000000004" cy="9.6" r="14.399999999999999" fill="#6b584a"/><circle cx="-36.00000000000001" cy="2.4" r="5.3999999999999995" fill="#fff"/><circle cx="40.800000000000004" cy="9.6" r="14.399999999999999" fill="#6b584a"/><circle cx="45.6" cy="2.4" r="5.3999999999999995" fill="#fff"/><path d="M -19.2 50.4 Q 0 74.4 19.2 50.4 Z" fill="#a4756a" stroke="#6b584a" stroke-width="4"/><circle cx="-72.0" cy="40.800000000000004" r="14.399999999999999" fill="#f5c0ae" opacity="0.75"/><circle cx="72.0" cy="40.800000000000004" r="14.399999999999999" fill="#f5c0ae" opacity="0.75"/></g><path transform="translate(118,258) scale(1.4)" d="M 0 -13 L 3 -3 L 13 0 L 3 3 L 0 13 L -3 3 L -13 0 L -3 -3 Z" fill="#f3cf7e" stroke="#6b584a" stroke-width="2" stroke-linejoin="round"/><path transform="translate(478,198) scale(1.15)" d="M 0 -13 L 3 -3 L 13 0 L 3 3 L 0 13 L -3 3 L -13 0 L -3 -3 Z" fill="#f3cf7e" stroke="#6b584a" stroke-width="2" stroke-linejoin="round"/><path transform="translate(618,298) scale(0.95)" d="M 0 -13 L 3 -3 L 13 0 L 3 3 L 0 13 L -3 3 L -13 0 L -3 -3 Z" fill="#f3cf7e" stroke="#6b584a" stroke-width="2" stroke-linejoin="round"/><path transform="translate(1000,188) scale(1.4)" d="M 0 -13 L 3 -3 L 13 0 L 3 3 L 0 13 L -3 3 L -13 0 L -3 -3 Z" fill="#f3cf7e" stroke="#6b584a" stroke-width="2" stroke-linejoin="round"/></svg>