<svg xmlns="http://www.w3.org/2000/svg" viewBox="0 0 1080 1080"><rect width="1080" height="1080" fill="#fffdf7"/><rect x="0" y="865" width="1080" height="215" fill="#f2e7d4"/><g transform="translate(540,430)"><rect x="-255" y="-185" width="510" height="370" rx="14" fill="#fff" stroke="#6b584a" stroke-width="7"/><line x1="-255" y1="-93" x2="255" y2="-93" stroke="#6b584a" stroke-width="5"/><line x1="-255" y1="0" x2="255" y2="0" stroke="#6b584a" stroke-width="5"/><line x1="-255" y1="93" x2="255" y2="93" stroke="#6b584a" stroke-width="5"/><line x1="-58" y1="-185" x2="-58" y2="185" stroke="#6b584a" stroke-width="5"/><rect x="-235" y="-165" width="155" height="52" rx="8" fill="#c3dccf"/><rect x="-28" y="-72" width="195" height="38" rx="8" fill="#f2dcab"/><rect x="-28" y="20" width="235" height="38" rx="8" fill="#f2dcab"/><rect x="-28" y="114" width="165" height="38" rx="8" fill="#f2dcab"/></g><g transform="translate(880,660)"><path d="M -120.0 300 L -120.0 66.0 Q -120.0 0 -72.0 0 L 72.0 0 Q 120.0 0 120.0 66.0 L 120.0 300 Z" fill="#c3dccf" stroke="#6b584a" stroke-width="5" stroke-linejoin="round"/><path d="M -120 40 Q -195 -12 -262 -55" fill="none" stroke="#6b584a" stroke-width="30" stroke-linecap="round"/><path d="M -120 40 Q -195 -12 -262 -55" fill="none" stroke="#c3dccf" stroke-width="19" stroke-linecap="round"/></g><g transform="translate(880,430)"><path d="M -73.16 -92.04 L -54.28 -139.23999999999998 L -25.96 -108.56 Z" fill="#a97f52" stroke="#6b584a" stroke-width="5" stroke-linejoin="round"/><path d="M -59.0 -103.84 L -50.74 -125.08000000000001 L -37.76 -109.74000000000001 Z" fill="#7e5c39"/><path d="M 73.16 -92.04 L 54.28 -139.23999999999998 L 25.96 -108.56 Z" fill="#a97f52" stroke="#6b584a" stroke-width="5" stroke-linejoin="round"/><path d="M 59.0 -103.84 L 50.74 -125.08000000000001 L 37.76 -109.74000000000001 Z" fill="#7e5c39"/><circle cx="0" cy="0" r="118" fill="#fdeee0" stroke="#6b584a" stroke-width="5"/><path d="M -125.08000000000001 59.0 Q -134.51999999999998 -100.3 0 -118.0 Q 134.51999999999998 -100.3 125.08000000000001 59.0 L 84.96 49.559999999999995 Q 103.84 -41.3 35.4 -59.0 Q 0 -67.25999999999999 -35.4 -59.0 Q -103.84 -41.3 -84.96 49.559999999999995 Z" fill="#5f4b3c" stroke="#6b584a" stroke-width="5" stroke-linejoin="round"/><path d="M -53.10000000000001 11.8 Q -40.120000000000005 -5.9 -27.140000000000004 11.8" fill="none" stroke="#6b584a" stroke-width="5" stroke-linecap="round"/><path d="M 27.140000000000004 11.8 Q 40.120000000000005 -5.9 53.10000000000001 11.8" fill="none" stroke="#6b584a" stroke-width="5" stroke-linecap="round"/><path d="M -23.6 49.559999999999995 Q 0 70.8 23.6 49.559999999999995" fill="none" stroke="#6b584a" stroke-width="5" stroke-linecap="round"/><circle cx="-70.8" cy="40.120000000000005" r="14.16" fill="#f5c0ae" opacity="0.75"/><circle cx="70.8" cy="40.120000000000005" r="14.16" fill="#f5c0ae" opacity="0.75"/></g><g transform="translate(150,500)"><path d="M -58.9 -74.10000000000001 L -43.7 -112.1 L -20.9 -87.4 Z" fill="#a97f52" stroke="#6b584a" stroke-width="5" stroke-linejoin="round"/><path d="M -47.5 -83.6 L -40.85 -100.7 L -30.400000000000002 -88.35000000000001 Z" fill="#7e5c39"/><path d="M 58.9 -74.10000000000001 L 43.7 -112.1 L 20.9 -87.4 Z" fill="#a97f52" stroke="#6b584a" stroke-width="5" stroke-linejoin="round"/><path d="M 47.5 -83.6 L 40.85 -100.7 L 30.400000000000002 -88.35000000000001 Z" fill="#7e5c39"/><circle cx="0" cy="0" r="95" fill="#fdeee0" stroke="#6b584a" stroke-width="5"/><path d="M -94.05 4.75 A 94.05 94.05 0 0 1 94.05 4.75 L 94.05 9.5 Q 68.39999999999999 1.9000000000000001 57.0 -17.099999999999998 Q 9.5 -30.400000000000002 -26.6 -20.9 Q -62.7 -11.4 -94.05 11.4 Z" fill="#4a4038" stroke="#6b584a" stroke-width="5" stroke-linejoin="round"/><path d="M -26.6 -22.8 L -11.4 -39.9" stroke="#6b584a" stroke-width="3" fill="none"/><circle cx="-34.199999999999996" cy="13.3" r="25.650000000000002" fill="#fff" fill-opacity="0.35" stroke="#6b584a" stroke-width="4"/><circle cx="34.199999999999996" cy="13.3" r="25.650000000000002" fill="#fff" fill-opacity="0.35" stroke="#6b584a" stroke-width="4"/><line x1="-8.549999999999999" y1="9.5" x2="8.549999999999999" y2="9.5" stroke="#6b584a" stroke-width="4"/><path d="M -42.75 9.5 Q -32.300000000000004 -4.75 -21.850000000000005 9.5" fill="none" stroke="#6b584a" stroke-width="5" stroke-linecap="round"/><path d="M 21.850000000000005 9.5 Q 32.300000000000004 -4.75 42.75 9.5" fill="none" stroke="#6b584a" stroke-width="5" stroke-linecap="round"/><path d="M -19.0 39.9 Q 0 57.0 19.0 39.9" fill="none" stroke="#6b584a" stroke-width="5" stroke-linecap="round"/><circle cx="-57.0" cy="32.300000000000004" r="11.4" fill="#f5c0ae" opacity="0.75"/><circle cx="57.0" cy="32.300000000000004" r="11.4" fill="#f5c0ae" opacity="0.75"/></g><g transform="translate(105,755)"><path d="M -54.56 -68.64 L -40.480000000000004 -103.83999999999999 L -19.36 -80.96000000000001 Z" fill="#a97f52" stroke="#6b584a" stroke-width="5" stroke-linejoin="round"/><path d="M -44.0 -77.44 L -37.839999999999996 -93.28 L -28.16 -81.84 Z" fill="#7e5c39"/><path d="M 54.56 -68.64 L 40.480000000000004 -103.83999999999999 L 19.36 -80.96000000000001 Z" fill="#a97f52" stroke="#6b584a" stroke-width="5" stroke-linejoin="round"/><path d="M 44.0 -77.44 L 37.839999999999996 -93.28 L 28.16 -81.84 Z" fill="#7e5c39"/><circle cx="0" cy="0" r="88" fill="#fdeee0" stroke="#6b584a" stroke-width="5"/><path d="M -89.76 149.6 L -88.0 -13.2 Q -80.96000000000001 -88.0 0 -88.0 Q 80.96000000000001 -88.0 88.0 -13.2 L 89.76 149.6 L 52.8 149.6 L 58.080000000000005 8.8 Q 63.36 -44.0 17.6 -45.760000000000005 Q -30.799999999999997 -51.04 -58.080000000000005 -17.6 L -52.8 149.6 Z" fill="#6e523c" stroke="#6b584a" stroke-width="5" stroke-linejoin="round"/><circle cx="-29.92" cy="7.04" r="10.559999999999999" fill="#6b584a"/><circle cx="-26.400000000000002" cy="1.76" r="3.96" fill="#fff"/><circle cx="29.92" cy="7.04" r="10.559999999999999" fill="#6b584a"/><circle cx="33.440000000000005" cy="1.76" r="3.96" fill="#fff"/><path d="M -14.08 36.96 Q 0 54.56 14.08 36.96 Z" fill="#a4756a" stroke="#6b584a" stroke-width="4"/><circle cx="-52.8" cy="29.92" r="10.559999999999999" fill="#f5c0ae" opacity="0.75"/><circle cx="52.8" cy="29.92" r="10.559999999999999" fill="#f5c0ae" opacity="0.75"/></g><g transform="translate(300,795)"><path d="M -52.7 -66.3 L -39.1 -100.3 L -18.7 -78.2 Z" fill="#a97f52" stroke="#6b584a" stroke-width="5" stroke-linejoin="round"/><path d="M -42.5 -74.8 L -36.55 -90.10000000000001 L -27.2 -79.05 Z" fill="#7e5c39"/><path d="M 52.7 -66.3 L 39.1 -100.3 L 18.7 -78.2 Z" fill="#a97f52" stroke="#6b584a" stroke-width="5" stroke-linejoin="round"/><path d="M 42.5 -74.8 L 36.55 -90.10000000000001 L 27.2 -79.05 Z" fill="#7e5c39"/><circle cx="0" cy="0" r="85" fill="#fdeee0" stroke="#6b584a" stroke-width="5"/><path d="M -84.15 0.0 A 84.15 84.15 0 0 1 84.15 0.0 L 84.15 5.1 Q 56.1 -8.5 42.5 -22.1 L 28.900000000000002 -10.2 L 10.2 -25.5 L -8.5 -11.9 L -28.900000000000002 -25.5 L -44.2 -10.2 Q -59.49999999999999 -13.6 -84.15 6.8 Z" fill="#54453a" stroke="#6b584a" stroke-width="5" stroke-linejoin="round"/><circle cx="-28.900000000000002" cy="6.8" r="10.2" fill="#6b584a"/><circle cx="-25.500000000000004" cy="1.7" r="3.8249999999999997" fill="#fff"/><circle cx="28.900000000000002" cy="6.8" r="10.2" fill="#6b584a"/><circle cx="32.300000000000004" cy="1.7" r="3.8249999999999997" fill="#fff"/><path d="M -13.6 35.699999999999996 Q 0 52.7 13.6 35.699999999999996 Z" fill="#a4756a" stroke="#6b584a" stroke-width="4"/><circle cx="-51.0" cy="28.900000000000002" r="10.2" fill="#f5c0ae" opacity="0.75"/><circle cx="51.0" cy="28.900000000000002" r="10.2" fill="#f5c0ae" opacity="0.75"/></g><g transform="translate(700,950) scale(0.92,0.92)"><ellipse cx="0" cy="22" rx="50" ry="56" fill="#e8b06a" stroke="#6b584a" stroke-width="5"/><circle cx="0" cy="-50" r="38" fill="#e8b06a" stroke="#6b584a" stroke-width="5"/><path d="M -32 -106 L -25 -78 L -6 -87 Z" fill="#e8b06a" stroke="#6b584a" stroke-width="5" stroke-linejoin="round"/><path d="M 32 -106 L 25 -78 L 6 -87 Z" fill="#e8b06a" stroke="#6b584a" stroke-width="5" stroke-linejoin="round"/><path d="M 46 58 Q 88 44 78 4" fill="none" stroke="#6b584a" stroke-width="8" stroke-linecap="round"/><path d="M -22 -2 q 5 12 0 25" fill="none" stroke="#c07a3a" stroke-width="5" stroke-linecap="round"/><path d="M 4 -2 q 5 12 0 25" fill="none" stroke="#c07a3a" stroke-width="5" stroke-linecap="round"/><path d="M 28 -2 q 5 12 0 25" fill="none" stroke="#c07a3a" stroke-width="5" stroke-linecap="round"/><g transform="translate(0,-50)"><path d="M -15 -1 Q -10 -7 -5 -1" fill="none" stroke="#6b584a" stroke-width="4.5" stroke-linecap="round"/><path d="M 5 -1 Q 10 -7 15 -1" fill="none" stroke="#6b584a" stroke-width="4.5" stroke-linecap="round"/><path d="M -4 11 Q 0 15 4 11" fill="none" stroke="#6b584a" stroke-width="4.5" stroke-linecap="round"/></g></g><g transform="translate(360,968) scale(-0.88,0.88)"><ellipse cx="0" cy="22" rx="50" ry="56" fill="#cda679" stroke="#6b584a" stroke-width="5"/><circle cx="0" cy="-50" r="38" fill="#cda679" stroke="#6b584a" stroke-width="5"/><path d="M -32 -106 L -25 -78 L -6 -87 Z" fill="#cda679" stroke="#6b584a" stroke-width="5" stroke-linejoin="round"/><path d="M 32 -106 L 25 -78 L 6 -87 Z" fill="#cda679" stroke="#6b584a" stroke-width="5" stroke-linejoin="round"/><path d="M 46 58 Q 88 44 78 4" fill="none" stroke="#6b584a" stroke-width="8" stroke-linecap="round"/><path d="M -22 -2 q 5 12 0 25" fill="none" stroke="#8a6a44" stroke-width="5" stroke-linecap="round"/><path d="M 4 -2 q 5 12 0 25" fill="none" stroke="#8a6a44" stroke-width="5" stroke-linecap="round"/><path d="M 28 -2 q 5 12 0 25" fill="none" stroke="#8a6a44" stroke-width="5" stroke-linecap="round"/><g transform="translate(0,-50)"><path d="M -15 -3 L -6 1" stroke="#6b584a" stroke-width="4.5" stroke-linecap="round"/><path d="M 15 -3 L 6 1" stroke="#6b584a" stroke-width="4.5" stroke-linecap="round"/><path d="M -5 12 Q 0 8 5 12" fill="none" stroke="#6b584a" stroke-width="4.5" stroke-linecap="round"/></g></g><path transform="translate(540,128) scale(1.5)" d="M 0 -13 L 3 -3 L 13 0 L 3 3 L 0 13 L -3 3 L -13 0 L -3 -3 Z" fill="#f3cf7e" stroke="#6b584a" stroke-width="2" stroke-linejoin="round"/><path transform="translate(760,178) scale(1.05)" d="M 0 -13 L 3 -3 L 13 0 L 3 3 L 0 13 L -3 3 L -13 0 L -3 -3 Z" fill="#f3cf7e" stroke="#6b584a" stroke-width="2" stroke-linejoin="round"/><path transform="translate(320,168) scale(1.05)" d="M 0 -13 L 3 -3 L 13 0 L 3 3 L 0 13 L -3 3 L -13 0 L -3 -3 Z" fill="#f3cf7e" stroke="#6b584a" stroke-width="2" stroke-linejoin="round"/></svg>