<svg xmlns="http://www.w3.org/2000/svg" viewBox="0 0 1080 1080"><rect width="1080" height="1080" fill="#fdf8f0"/><rect x="0" y="860" width="1080" height="220" fill="#efe3cd"/><g transform="translate(540,430)"><rect x="-260" y="-190" width="520" height="380" rx="16" fill="#fff" stroke="#4a4640" stroke-width="8"/><line x1="-260" y1="-95" x2="260" y2="-95" stroke="#4a4640" stroke-width="6"/><line x1="-260" y1="0" x2="260" y2="0" stroke="#4a4640" stroke-width="6"/><line x1="-260" y1="95" x2="260" y2="95" stroke="#4a4640" stroke-width="6"/><line x1="-60" y1="-190" x2="-60" y2="190" stroke="#4a4640" stroke-width="6"/><rect x="-240" y="-170" width="160" height="55" rx="8" fill="#bcd9d1"/><rect x="-30" y="-75" width="200" height="40" rx="8" fill="#f2d8a8"/><rect x="-30" y="20" width="240" height="40" rx="8" fill="#f2d8a8"/><rect x="-30" y="115" width="170" height="40" rx="8" fill="#f2d8a8"/></g><g transform="translate(880,660)"><path d="M -120.0 300 L -120.0 75.0 Q -120.0 0 -76.80000000000001 0 L 76.80000000000001 0 Q 120.0 0 120.0 75.0 L 120.0 300 Z" fill="#bcd9d1" stroke="#4a4640" stroke-width="6" stroke-linejoin="round"/><path d="M -120 40 Q -200 -10 -270 -60" fill="none" stroke="#4a4640" stroke-width="32" stroke-linecap="round"/><path d="M -120 40 Q -198 -10 -266 -57" fill="none" stroke="#bcd9d1" stroke-width="20" stroke-linecap="round"/></g><g transform="translate(880,430)"><circle cx="0" cy="0" r="118" fill="#fde8d7" stroke="#4a4640" stroke-width="6"/><path d="M -127.44000000000001 53.1 Q -135.7 -106.2 0 -120.36 Q 135.7 -106.2 127.44000000000001 53.1 L 88.5 35.4 Q 106.2 -53.1 41.3 -64.9 Q 0 -73.16 -53.1 -59.0 Q -106.2 -47.2 -88.5 35.4 Z" fill="#6b5a4e" stroke="#4a4640" stroke-width="6" stroke-linejoin="round"/><path d="M -56.64 9.44 Q -42.48 -9.44 -28.319999999999997 9.44" fill="none" stroke="#4a4640" stroke-width="6" stroke-linecap="round"/><path d="M 28.319999999999997 9.44 Q 42.48 -9.44 56.64 9.44" fill="none" stroke="#4a4640" stroke-width="6" stroke-linecap="round"/><path d="M -25.96 49.559999999999995 Q 0 73.16 25.96 49.559999999999995" fill="none" stroke="#4a4640" stroke-width="6" stroke-linecap="round"/><circle cx="-73.16" cy="37.76" r="15.34" fill="#f6b8a8" opacity="0.8"/><circle cx="73.16" cy="37.76" r="15.34" fill="#f6b8a8" opacity="0.8"/></g><g transform="translate(150,500)"><circle cx="0" cy="0" r="95" fill="#fde8d7" stroke="#4a4640" stroke-width="6"/><path d="M -94.05 -2.85 A 94.05 94.05 0 0 1 94.05 -2.85 L 94.05 3.8000000000000003 Q 74.10000000000001 -13.3 55.099999999999994 -22.8 Q 39.9 -9.5 18.05 -25.650000000000002 Q 0 -11.4 -18.05 -25.650000000000002 Q -39.9 -9.5 -55.099999999999994 -22.8 Q -74.10000000000001 -13.3 -94.05 3.8000000000000003 Z" fill="#5a6472" stroke="#4a4640" stroke-width="6" stroke-linejoin="round"/><circle cx="-36.1" cy="7.6000000000000005" r="28.5" fill="none" stroke="#4a4640" stroke-width="5"/><circle cx="36.1" cy="7.6000000000000005" r="28.5" fill="none" stroke="#4a4640" stroke-width="5"/><line x1="-7.6000000000000005" y1="4.75" x2="7.6000000000000005" y2="4.75" stroke="#4a4640" stroke-width="5"/><path d="M -45.599999999999994 7.6000000000000005 Q -34.199999999999996 -7.6000000000000005 -22.799999999999997 7.6000000000000005" fill="none" stroke="#4a4640" stroke-width="6" stroke-linecap="round"/><path d="M 22.799999999999997 7.6000000000000005 Q 34.199999999999996 -7.6000000000000005 45.599999999999994 7.6000000000000005" fill="none" stroke="#4a4640" stroke-width="6" stroke-linecap="round"/><path d="M -20.9 39.9 Q 0 58.9 20.9 39.9" fill="none" stroke="#4a4640" stroke-width="6" stroke-linecap="round"/><circle cx="-58.9" cy="30.400000000000002" r="12.35" fill="#f6b8a8" opacity="0.8"/><circle cx="58.9" cy="30.400000000000002" r="12.35" fill="#f6b8a8" opacity="0.8"/></g><g transform="translate(105,750)"><circle cx="0" cy="0" r="88" fill="#fde8d7" stroke="#4a4640" stroke-width="6"/><path d="M -92.4 132.0 L -89.76 -17.6 Q -83.6 -92.4 0 -92.4 Q 83.6 -92.4 89.76 -17.6 L 92.4 132.0 L 54.56 132.0 L 59.84 4.4 Q 66.0 -48.400000000000006 22.0 -52.8 Q -35.2 -58.080000000000005 -59.84 -22.0 L -54.56 132.0 Z" fill="#7a5c48" stroke="#4a4640" stroke-width="6" stroke-linejoin="round"/><circle cx="63.36" cy="-63.36" r="15.84" fill="#f2a0b5" stroke="#4a4640" stroke-width="5"/><circle cx="83.6" cy="-52.8" r="11.440000000000001" fill="#f2a0b5" stroke="#4a4640" stroke-width="5"/><circle cx="-31.68" cy="5.279999999999999" r="12.32" fill="#4a4640"/><circle cx="-27.28" cy="0.0" r="4.4" fill="#fff"/><circle cx="31.68" cy="5.279999999999999" r="12.32" fill="#4a4640"/><circle cx="36.08" cy="0.0" r="4.4" fill="#fff"/><ellipse cx="0" cy="42.239999999999995" rx="15.84" ry="17.6" fill="#8a6a5a" stroke="#4a4640" stroke-width="5"/><circle cx="-54.56" cy="28.16" r="11.440000000000001" fill="#f6b8a8" opacity="0.8"/><circle cx="54.56" cy="28.16" r="11.440000000000001" fill="#f6b8a8" opacity="0.8"/></g><g transform="translate(300,790)"><circle cx="0" cy="0" r="85" fill="#fde8d7" stroke="#4a4640" stroke-width="6"/><path d="M -84.15 -2.55 A 84.15 84.15 0 0 1 84.15 -2.55 L 84.15 1.7 L 61.199999999999996 -13.6 L 46.75000000000001 0.0 L 27.2 -18.7 L 10.2 -1.7 L -8.5 -20.4 L -27.2 -1.7 L -46.75000000000001 -17.0 L -63.75 0.0 L -84.15 1.7 Z" fill="#4e4238" stroke="#4a4640" stroke-width="6" stroke-linejoin="round"/><circle cx="-30.599999999999998" cy="5.1" r="11.9" fill="#4a4640"/><circle cx="-26.349999999999998" cy="0.0" r="4.25" fill="#fff"/><circle cx="30.599999999999998" cy="5.1" r="11.9" fill="#4a4640"/><circle cx="34.849999999999994" cy="0.0" r="4.25" fill="#fff"/><ellipse cx="0" cy="40.8" rx="15.299999999999999" ry="17.0" fill="#8a6a5a" stroke="#4a4640" stroke-width="5"/><circle cx="-52.7" cy="27.2" r="11.05" fill="#f6b8a8" opacity="0.8"/><circle cx="52.7" cy="27.2" r="11.05" fill="#f6b8a8" opacity="0.8"/></g><g transform="translate(700,950) scale(0.95,0.95)"><ellipse cx="0" cy="20" rx="52" ry="58" fill="#e8a35c" stroke="#4a4640" stroke-width="6"/><circle cx="0" cy="-52" r="40" fill="#e8a35c" stroke="#4a4640" stroke-width="6"/><path d="M -34 -112 L -26 -80 L -6 -90 Z" fill="#e8a35c" stroke="#4a4640" stroke-width="6" stroke-linejoin="round"/><path d="M 34 -112 L 26 -80 L 6 -90 Z" fill="#e8a35c" stroke="#4a4640" stroke-width="6" stroke-linejoin="round"/><path d="M 48 55 Q 92 40 80 0" fill="none" stroke="#4a4640" stroke-width="9" stroke-linecap="round"/><path d="M -20 -6 q 6 12 0 26" fill="none" stroke="#4a4640" stroke-width="5" stroke-linecap="round" opacity="0.55"/><path d="M 8 -6 q 6 12 0 26" fill="none" stroke="#4a4640" stroke-width="5" stroke-linecap="round" opacity="0.55"/><path d="M 36 -6 q 6 12 0 26" fill="none" stroke="#4a4640" stroke-width="5" stroke-linecap="round" opacity="0.55"/><g transform="translate(0,-52)"><path d="M -16 -2 Q -11 -8 -6 -2" fill="none" stroke="#4a4640" stroke-width="5" stroke-linecap="round"/><path d="M 6 -2 Q 11 -8 16 -2" fill="none" stroke="#4a4640" stroke-width="5" stroke-linecap="round"/><path d="M -5 10 Q 0 14 5 10" fill="none" stroke="#4a4640" stroke-width="5" stroke-linecap="round"/></g></g><g transform="translate(360,970) scale(-0.9,0.9)"><ellipse cx="0" cy="20" rx="52" ry="58" fill="#c49a6c" stroke="#4a4640" stroke-width="6"/><circle cx="0" cy="-52" r="40" fill="#c49a6c" stroke="#4a4640" stroke-width="6"/><path d="M -34 -112 L -26 -80 L -6 -90 Z" fill="#c49a6c" stroke="#4a4640" stroke-width="6" stroke-linejoin="round"/><path d="M 34 -112 L 26 -80 L 6 -90 Z" fill="#c49a6c" stroke="#4a4640" stroke-width="6" stroke-linejoin="round"/><path d="M 48 55 Q 92 40 80 0" fill="none" stroke="#4a4640" stroke-width="9" stroke-linecap="round"/><path d="M -20 -6 q 6 12 0 26" fill="none" stroke="#4a4640" stroke-width="5" stroke-linecap="round" opacity="0.55"/><path d="M 8 -6 q 6 12 0 26" fill="none" stroke="#4a4640" stroke-width="5" stroke-linecap="round" opacity="0.55"/><path d="M 36 -6 q 6 12 0 26" fill="none" stroke="#4a4640" stroke-width="5" stroke-linecap="round" opacity="0.55"/><g transform="translate(0,-52)"><path d="M -16 -4 L -6 0" stroke="#4a4640" stroke-width="5" stroke-linecap="round"/><path d="M 16 -4 L 6 0" stroke="#4a4640" stroke-width="5" stroke-linecap="round"/><path d="M -6 12 Q 0 8 6 12" fill="none" stroke="#4a4640" stroke-width="5" stroke-linecap="round"/></g></g><path transform="translate(540,130) scale(1.6)" d="M 0 -14 L 3.5 -3.5 L 14 0 L 3.5 3.5 L 0 14 L -3.5 3.5 L -14 0 L -3.5 -3.5 Z" fill="#f5c96a" stroke="#4a4640" stroke-width="2.5" stroke-linejoin="round"/><path transform="translate(760,180) scale(1.1)" d="M 0 -14 L 3.5 -3.5 L 14 0 L 3.5 3.5 L 0 14 L -3.5 3.5 L -14 0 L -3.5 -3.5 Z" fill="#f5c96a" stroke="#4a4640" stroke-width="2.5" stroke-linejoin="round"/><path transform="translate(320,170) scale(1.1)" d="M 0 -14 L 3.5 -3.5 L 14 0 L 3.5 3.5 L 0 14 L -3.5 3.5 L -14 0 L -3.5 -3.5 Z" fill="#f5c96a" stroke="#4a4640" stroke-width="2.5" stroke-linejoin="round"/></svg>