<svg xmlns="http://www.w3.org/2000/svg" viewBox="0 0 1080 1080"><rect width="1080" height="1080" fill="#fdf8f0"/><rect x="60" y="80" width="330" height="330" rx="18" fill="#cfe8ef" stroke="#4a4640" stroke-width="8"/><line x1="225" y1="80" x2="225" y2="410" stroke="#4a4640" stroke-width="8"/><line x1="60" y1="245" x2="390" y2="245" stroke="#4a4640" stroke-width="8"/><circle cx="140" cy="160" r="44" fill="#f7c873" stroke="#4a4640" stroke-width="6"/><rect x="0" y="820" width="1080" height="260" fill="#efe3cd"/><g transform="translate(880,690)"><line x1="0" y1="60" x2="0" y2="130" stroke="#4a4640" stroke-width="10"/><ellipse cx="0" cy="140" rx="66" ry="18" fill="#d9d3c8" stroke="#4a4640" stroke-width="6"/><circle cx="0" cy="0" r="76" fill="#e8f2f3" stroke="#4a4640" stroke-width="7"/><circle cx="0" cy="0" r="14" fill="#9fc6c9" stroke="#4a4640" stroke-width="5"/><path d="M -8 -14 Q -58 -46 -30 -66 Q -6 -40 8 -14 Z" fill="#bcdde0" stroke="#4a4640" stroke-width="5"/><path d="M 14 -4 Q 66 -22 66 12 Q 30 16 14 4 Z" fill="#bcdde0" stroke="#4a4640" stroke-width="5"/><path d="M -4 14 Q -14 66 -48 46 Q -34 16 -8 10 Z" fill="#bcdde0" stroke="#4a4640" stroke-width="5"/></g><path d="M 790 640 q -30 10 0 22 M 780 600 q -40 12 0 26" fill="none" stroke="#9fc6c9" stroke-width="8" stroke-linecap="round"/><g transform="translate(470,640)"><path d="M -125.0 290 L -125.0 72.5 Q -125.0 0 -80.0 0 L 80.0 0 Q 125.0 0 125.0 72.5 L 125.0 290 Z" fill="#e9f0f4" stroke="#4a4640" stroke-width="6" stroke-linejoin="round"/><path d="M -125 60 Q -195 40 -215 -30" fill="none" stroke="#4a4640" stroke-width="34" stroke-linecap="round"/><path d="M 125 60 Q 195 40 215 -30" fill="none" stroke="#4a4640" stroke-width="34" stroke-linecap="round"/><path d="M -125 60 Q -193 40 -212 -28" fill="none" stroke="#e9f0f4" stroke-width="22" stroke-linecap="round"/><path d="M 125 60 Q 193 40 212 -28" fill="none" stroke="#e9f0f4" stroke-width="22" stroke-linecap="round"/></g><g transform="translate(470,610) rotate(-4)"><rect x="-150" y="-100" width="300" height="200" rx="10" fill="#fff" stroke="#4a4640" stroke-width="7"/><line x1="-110" y1="-55" x2="110" y2="-55" stroke="#b9b2a6" stroke-width="9"/><line x1="-110" y1="-15" x2="110" y2="-15" stroke="#b9b2a6" stroke-width="9"/><line x1="-110" y1="25" x2="40" y2="25" stroke="#b9b2a6" stroke-width="9"/><path d="M -110 60 L 110 60" stroke="#e08a70" stroke-width="13"/></g><g transform="translate(470,350)"><circle cx="0" cy="0" r="130" fill="#fde8d7" stroke="#4a4640" stroke-width="6"/><path d="M -128.7 -3.9 A 128.7 128.7 0 0 1 128.7 -3.9 L 128.7 5.2 Q 101.4 -18.200000000000003 75.39999999999999 -31.2 Q 54.6 -13.0 24.7 -35.1 Q 0 -15.6 -24.7 -35.1 Q -54.6 -13.0 -75.39999999999999 -31.2 Q -101.4 -18.200000000000003 -128.7 5.2 Z" fill="#5a6472" stroke="#4a4640" stroke-width="6" stroke-linejoin="round"/><circle cx="-49.4" cy="10.4" r="39.0" fill="none" stroke="#4a4640" stroke-width="5"/><circle cx="49.4" cy="10.4" r="39.0" fill="none" stroke="#4a4640" stroke-width="5"/><line x1="-10.4" y1="6.5" x2="10.4" y2="6.5" stroke="#4a4640" stroke-width="5"/><circle cx="-46.8" cy="13.0" r="14.3" fill="#4a4640"/><circle cx="46.8" cy="13.0" r="14.3" fill="#4a4640"/><ellipse cx="0" cy="67.60000000000001" rx="26.0" ry="33.800000000000004" fill="#8a6a5a" stroke="#4a4640" stroke-width="5"/><circle cx="-80.6" cy="41.6" r="16.900000000000002" fill="#f6b8a8" opacity="0.8"/><circle cx="80.6" cy="41.6" r="16.900000000000002" fill="#f6b8a8" opacity="0.8"/></g><path transform="translate(340,300) scale(1.2)" d="M 0 -16 Q 12 2 0 14 Q -12 2 0 -16 Z" fill="#aee0f2" stroke="#4a4640" stroke-width="4"/><path transform="translate(615,320) scale(1.0)" d="M 0 -16 Q 12 2 0 14 Q -12 2 0 -16 Z" fill="#aee0f2" stroke="#4a4640" stroke-width="4"/><path transform="translate(590,220) scale(0.8)" d="M 0 -16 Q 12 2 0 14 Q -12 2 0 -16 Z" fill="#aee0f2" stroke="#4a4640" stroke-width="4"/><g stroke="#4a4640" stroke-width="7" stroke-linecap="round"><line x1="290" y1="180" x2="320" y2="215"/><line x1="255" y1="255" x2="295" y2="270"/><line x1="655" y1="180" x2="625" y2="215"/><line x1="690" y1="255" x2="650" y2="270"/></g><g transform="translate(300,950) scale(1.05,1.05)"><ellipse cx="0" cy="0" rx="95" ry="38" fill="#c49a6c" stroke="#4a4640" stroke-width="6"/><circle cx="-85" cy="-14" r="34" fill="#c49a6c" stroke="#4a4640" stroke-width="6"/><path d="M -112 -62 L -104 -36 L -88 -46 Z" fill="#c49a6c" stroke="#4a4640" stroke-width="6" stroke-linejoin="round"/><path d="M -82 -66 L -68 -40 L -56 -52 Z" fill="#c49a6c" stroke="#4a4640" stroke-width="6" stroke-linejoin="round"/><path d="M 90 8 Q 130 0 122 -30" fill="none" stroke="#4a4640" stroke-width="9" stroke-linecap="round"/><path d="M -30 -34 q 6 14 0 30" fill="none" stroke="#4a4640" stroke-width="6" stroke-linecap="round" opacity="0.55"/><path d="M 5 -34 q 6 14 0 30" fill="none" stroke="#4a4640" stroke-width="6" stroke-linecap="round" opacity="0.55"/><path d="M 40 -34 q 6 14 0 30" fill="none" stroke="#4a4640" stroke-width="6" stroke-linecap="round" opacity="0.55"/><g transform="translate(-85,-14)"><path d="M -17 0 L -5 0" stroke="#4a4640" stroke-width="5" stroke-linecap="round"/><path d="M 5 0 L 17 0" stroke="#4a4640" stroke-width="5" stroke-linecap="round"/><path d="M -5 12 Q 0 9 5 12" fill="none" stroke="#4a4640" stroke-width="5" stroke-linecap="round"/></g></g><g transform="translate(800,960) scale(-1.0,1.0)"><ellipse cx="0" cy="0" rx="95" ry="38" fill="#e8a35c" stroke="#4a4640" stroke-width="6"/><circle cx="-85" cy="-14" r="34" fill="#e8a35c" stroke="#4a4640" stroke-width="6"/><path d="M -112 -62 L -104 -36 L -88 -46 Z" fill="#e8a35c" stroke="#4a4640" stroke-width="6" stroke-linejoin="round"/><path d="M -82 -66 L -68 -40 L -56 -52 Z" fill="#e8a35c" stroke="#4a4640" stroke-width="6" stroke-linejoin="round"/><path d="M 90 8 Q 130 0 122 -30" fill="none" stroke="#4a4640" stroke-width="9" stroke-linecap="round"/><path d="M -25 -34 q 6 14 0 30" fill="none" stroke="#4a4640" stroke-width="6" stroke-linecap="round" opacity="0.55"/><path d="M 10 -34 q 6 14 0 30" fill="none" stroke="#4a4640" stroke-width="6" stroke-linecap="round" opacity="0.55"/><path d="M 45 -34 q 6 14 0 30" fill="none" stroke="#4a4640" stroke-width="6" stroke-linecap="round" opacity="0.55"/><g transform="translate(-85,-14)"><path d="M -17 0 L -5 0" stroke="#4a4640" stroke-width="5" stroke-linecap="round"/><path d="M 5 0 L 17 0" stroke="#4a4640" stroke-width="5" stroke-linecap="round"/><path d="M -5 12 Q 0 9 5 12" fill="none" stroke="#4a4640" stroke-width="5" stroke-linecap="round"/></g></g></svg>