<svg xmlns="http://www.w3.org/2000/svg" viewBox="0 0 1080 1080"><rect width="1080" height="1080" fill="#fffdf7"/><circle cx="540" cy="560" r="425" fill="#eaf3ec"/><g transform="translate(540,700)"><path d="M -150.0 380 L -150.0 83.6 Q -150.0 0 -90.0 0 L 90.0 0 Q 150.0 0 150.0 83.6 L 150.0 380 Z" fill="#c3dccf" stroke="#6b584a" stroke-width="5" stroke-linejoin="round"/><path d="M -150 80 Q -225 40 -237 -55" fill="none" stroke="#6b584a" stroke-width="30" stroke-linecap="round"/><path d="M -150 80 Q -225 40 -237 -55" fill="none" stroke="#c3dccf" stroke-width="19" stroke-linecap="round"/><path d="M 150 80 Q 226 20 232 -112" fill="none" stroke="#6b584a" stroke-width="30" stroke-linecap="round"/><path d="M 150 80 Q 226 20 232 -112" fill="none" stroke="#c3dccf" stroke-width="19" stroke-linecap="round"/></g><g transform="translate(300,610) rotate(10)"><rect x="-50" y="-85" width="100" height="170" rx="16" fill="#fff" stroke="#6b584a" stroke-width="6"/><rect x="-35" y="-62" width="70" height="110" rx="6" fill="#dcedf3"/></g><circle cx="772" cy="572" r="25" fill="#fdeee0" stroke="#6b584a" stroke-width="5"/><g transform="translate(540,380)"><path d="M -93.0 -117.0 L -69.0 -177.0 L -33.0 -138.0 Z" fill="#a97f52" stroke="#6b584a" stroke-width="5" stroke-linejoin="round"/><path d="M -75.0 -132.0 L -64.5 -159.0 L -48.0 -139.5 Z" fill="#7e5c39"/><path d="M 93.0 -117.0 L 69.0 -177.0 L 33.0 -138.0 Z" fill="#a97f52" stroke="#6b584a" stroke-width="5" stroke-linejoin="round"/><path d="M 75.0 -132.0 L 64.5 -159.0 L 48.0 -139.5 Z" fill="#7e5c39"/><circle cx="0" cy="0" r="150" fill="#fdeee0" stroke="#6b584a" stroke-width="5"/><path d="M -159.0 75.0 Q -170.99999999999997 -127.5 0 -150.0 Q 170.99999999999997 -127.5 159.0 75.0 L 108.0 63.0 Q 132.0 -52.5 45.0 -75.0 Q 0 -85.49999999999999 -45.0 -75.0 Q -132.0 -52.5 -108.0 63.0 Z" fill="#5f4b3c" stroke="#6b584a" stroke-width="5" stroke-linejoin="round"/><path d="M -67.5 15.0 Q -51.00000000000001 -7.5 -34.50000000000001 15.0" fill="none" stroke="#6b584a" stroke-width="5" stroke-linecap="round"/><path d="M 34.50000000000001 15.0 Q 51.00000000000001 -7.5 67.5 15.0" fill="none" stroke="#6b584a" stroke-width="5" stroke-linecap="round"/><path d="M -30.0 63.0 Q 0 90.0 30.0 63.0" fill="none" stroke="#6b584a" stroke-width="5" stroke-linecap="round"/><circle cx="-90.0" cy="51.00000000000001" r="18.0" fill="#f5c0ae" opacity="0.75"/><circle cx="90.0" cy="51.00000000000001" r="18.0" fill="#f5c0ae" opacity="0.75"/></g><path transform="translate(225,255) scale(1.35)" d="M 0 -13 L 3 -3 L 13 0 L 3 3 L 0 13 L -3 3 L -13 0 L -3 -3 Z" fill="#f3cf7e" stroke="#6b584a" stroke-width="2" stroke-linejoin="round"/><path transform="translate(852,235) scale(1.6)" d="M 0 -13 L 3 -3 L 13 0 L 3 3 L 0 13 L -3 3 L -13 0 L -3 -3 Z" fill="#f3cf7e" stroke="#6b584a" stroke-width="2" stroke-linejoin="round"/><path transform="translate(792,428) scale(0.95)" d="M 0 -13 L 3 -3 L 13 0 L 3 3 L 0 13 L -3 3 L -13 0 L -3 -3 Z" fill="#f3cf7e" stroke="#6b584a" stroke-width="2" stroke-linejoin="round"/><path transform="translate(178,476) scale(0.95)" d="M 0 -13 L 3 -3 L 13 0 L 3 3 L 0 13 L -3 3 L -13 0 L -3 -3 Z" fill="#f3cf7e" stroke="#6b584a" stroke-width="2" stroke-linejoin="round"/></svg>