<svg xmlns="http://www.w3.org/2000/svg" viewBox="0 0 1080 1080"><rect width="1080" height="1080" fill="#fdf8f0"/><circle cx="300" cy="540" r="330" fill="#f7ecf0"/><circle cx="800" cy="560" r="310" fill="#e9f1f7"/><g transform="translate(290,660)"><path d="M -120.0 300 L -120.0 75.0 Q -120.0 0 -76.80000000000001 0 L 76.80000000000001 0 Q 120.0 0 120.0 75.0 L 120.0 300 Z" fill="#f4e6d5" stroke="#4a4640" stroke-width="6" stroke-linejoin="round"/></g><g transform="translate(290,420)"><circle cx="0" cy="0" r="125" fill="#fde8d7" stroke="#4a4640" stroke-width="6"/><path d="M -131.25 187.5 L -127.5 -25.0 Q -118.75 -131.25 0 -131.25 Q 118.75 -131.25 127.5 -25.0 L 131.25 187.5 L 77.5 187.5 L 85.0 6.25 Q 93.75 -68.75 31.25 -75.0 Q -50.0 -82.5 -85.0 -31.25 L -77.5 187.5 Z" fill="#7a5c48" stroke="#4a4640" stroke-width="6" stroke-linejoin="round"/><circle cx="90.0" cy="-90.0" r="22.5" fill="#f2a0b5" stroke="#4a4640" stroke-width="5"/><circle cx="118.75" cy="-75.0" r="16.25" fill="#f2a0b5" stroke="#4a4640" stroke-width="5"/><circle cx="-45.0" cy="7.5" r="17.5" fill="#4a4640"/><circle cx="-38.75" cy="0.0" r="6.25" fill="#fff"/><circle cx="45.0" cy="7.5" r="17.5" fill="#4a4640"/><circle cx="51.25" cy="0.0" r="6.25" fill="#fff"/><ellipse cx="0" cy="60.0" rx="22.5" ry="25.0" fill="#8a6a5a" stroke="#4a4640" stroke-width="5"/><circle cx="-77.5" cy="40.0" r="16.25" fill="#f6b8a8" opacity="0.8"/><circle cx="77.5" cy="40.0" r="16.25" fill="#f6b8a8" opacity="0.8"/></g><g transform="translate(790,680)"><path d="M -115.0 280 L -115.0 70.0 Q -115.0 0 -73.6 0 L 73.6 0 Q 115.0 0 115.0 70.0 L 115.0 280 Z" fill="#9fc4de" stroke="#4a4640" stroke-width="6" stroke-linejoin="round"/><path d="M 115 60 Q 190 30 210 -40" fill="none" stroke="#4a4640" stroke-width="32" stroke-linecap="round"/><path d="M 115 60 Q 188 30 207 -37" fill="none" stroke="#9fc4de" stroke-width="20" stroke-linecap="round"/></g><g transform="translate(1010,600) rotate(-18)"><ellipse cx="0" cy="-30" rx="62" ry="72" fill="#c9584c" stroke="#4a4640" stroke-width="7"/><rect x="-14" y="36" width="28" height="64" rx="10" fill="#e0c9a0" stroke="#4a4640" stroke-width="6"/></g><circle cx="905" cy="330" r="24" fill="#fff" stroke="#4a4640" stroke-width="6"/><g transform="translate(790,450)"><circle cx="0" cy="0" r="120" fill="#fde8d7" stroke="#4a4640" stroke-width="6"/><path d="M -118.8 -3.5999999999999996 A 118.8 118.8 0 0 1 118.8 -3.5999999999999996 L 118.8 2.4 L 86.39999999999999 -19.2 L 66.0 0.0 L 38.4 -26.4 L 14.399999999999999 -2.4 L -12.0 -28.799999999999997 L -38.4 -2.4 L -66.0 -24.0 L -90.0 0.0 L -118.8 2.4 Z" fill="#4e4238" stroke="#4a4640" stroke-width="6" stroke-linejoin="round"/><circle cx="-43.199999999999996" cy="7.199999999999999" r="16.8" fill="#4a4640"/><circle cx="-37.199999999999996" cy="0.0" r="6.0" fill="#fff"/><circle cx="43.199999999999996" cy="7.199999999999999" r="16.8" fill="#4a4640"/><circle cx="49.199999999999996" cy="0.0" r="6.0" fill="#fff"/><ellipse cx="0" cy="57.599999999999994" rx="21.599999999999998" ry="24.0" fill="#8a6a5a" stroke="#4a4640" stroke-width="5"/><circle cx="-74.4" cy="38.4" r="15.600000000000001" fill="#f6b8a8" opacity="0.8"/><circle cx="74.4" cy="38.4" r="15.600000000000001" fill="#f6b8a8" opacity="0.8"/></g><path transform="translate(120,260) scale(1.5)" d="M 0 -14 L 3.5 -3.5 L 14 0 L 3.5 3.5 L 0 14 L -3.5 3.5 L -14 0 L -3.5 -3.5 Z" fill="#f5c96a" stroke="#4a4640" stroke-width="2.5" stroke-linejoin="round"/><path transform="translate(480,200) scale(1.2)" d="M 0 -14 L 3.5 -3.5 L 14 0 L 3.5 3.5 L 0 14 L -3.5 3.5 L -14 0 L -3.5 -3.5 Z" fill="#f5c96a" stroke="#4a4640" stroke-width="2.5" stroke-linejoin="round"/><path transform="translate(620,300) scale(1.0)" d="M 0 -14 L 3.5 -3.5 L 14 0 L 3.5 3.5 L 0 14 L -3.5 3.5 L -14 0 L -3.5 -3.5 Z" fill="#f5c96a" stroke="#4a4640" stroke-width="2.5" stroke-linejoin="round"/><path transform="translate(1000,190) scale(1.5)" d="M 0 -14 L 3.5 -3.5 L 14 0 L 3.5 3.5 L 0 14 L -3.5 3.5 L -14 0 L -3.5 -3.5 Z" fill="#f5c96a" stroke="#4a4640" stroke-width="2.5" stroke-linejoin="round"/><g stroke="#4a4640" stroke-width="7" stroke-linecap="round"><line x1="500" y1="480" x2="540" y2="480"/><line x1="505" y1="540" x2="545" y2="540"/></g></svg>